<svg width="174" height="50" viewBox="0 0 174 50" fill="none" xmlns="http://www.w3.org/2000/svg">
<circle cx="25" cy="25" r="25" fill="url(#paint0_linear_322_1098)"/>
<path d="M22.2869 22.461C22.287 23.957 23.5041 25.1741 25 25.1741C25.7247 25.1741 26.4061 24.8918 26.9184 24.3794C27.4309 23.867 27.7131 23.1857 27.7131 22.461C27.7131 20.965 26.4961 19.748 25 19.748C23.504 19.748 22.2869 20.965 22.2869 22.461ZM23.8965 22.461C23.8965 21.8525 24.3916 21.3575 25 21.3575C25.6085 21.3575 26.1036 21.8525 26.1036 22.461C26.1036 22.7557 25.9887 23.0329 25.7804 23.2413C25.5719 23.4497 25.2947 23.5645 25 23.5644C24.3916 23.5644 23.8965 23.0695 23.8965 22.461Z" fill="#121A1F"/>
<path d="M24.4628 10.2055C24.4621 10.2063 24.4586 10.2092 24.4576 10.2102C24.3401 10.3162 22.8049 11.7193 21.2591 14.0172C20.332 15.3953 19.5922 16.813 19.0605 18.231C18.6258 19.3899 18.3302 20.5509 18.1756 21.7009C16.7285 22.0437 15.5048 22.4973 14.6146 23.023C13.0902 23.9235 12.7702 24.899 12.7702 25.5588C12.7702 26.5379 13.4466 27.9288 16.6686 28.9942C17.1029 29.1378 17.5644 29.2688 18.0488 29.3866V31.9C18.0488 32.3444 18.4092 32.7048 18.8537 32.7048H21.8588C21.9254 34.0137 22.1532 35.2853 22.5285 36.4227C22.9793 37.7886 23.6339 38.9409 24.4216 39.755C24.5732 39.9116 24.7819 40 24.9999 40C25.218 40 25.4267 39.9116 25.5783 39.755C26.366 38.9409 27.0207 37.7886 27.4715 36.4227C27.8468 35.2853 28.0746 34.0137 28.1412 32.7048H31.1463C31.5909 32.7048 31.9511 32.3444 31.9511 31.9V29.3866C32.4356 29.2688 32.8972 29.1378 33.3315 28.9942C36.5534 27.9288 37.2298 26.5379 37.2298 25.5588C37.2298 24.899 36.9097 23.9235 35.3854 23.023C34.4952 22.4973 33.2716 22.0437 31.8245 21.7009C31.6698 20.5509 31.3742 19.3899 30.9395 18.231C30.4078 16.813 29.668 15.3953 28.741 14.0172C27.1665 11.6768 25.603 10.2644 25.5372 10.2055C25.3836 10.0677 25.1917 10 25.0004 10C24.8071 10 24.6145 10.0692 24.4628 10.2055ZM25.0004 11.9328C25.5419 12.4929 26.4223 13.4766 27.3138 14.7806H22.6864C23.5748 13.4813 24.4577 12.4948 25.0004 11.9328ZM19.6585 25.855V23.5675C19.6585 20.8033 20.6307 18.2989 21.6905 16.3901H28.3094C29.3716 18.3027 30.3416 20.8056 30.3416 23.5675V25.855C30.3416 26.2995 30.7019 26.6599 31.1463 26.6599C31.5909 26.6599 31.9511 26.2995 31.9511 25.855V23.5675C31.9511 23.5089 31.9504 23.4502 31.9499 23.3914C33.0185 23.6756 33.9116 24.022 34.5667 24.4089C35.2362 24.8043 35.6202 25.2234 35.6202 25.5588C35.6202 26.0482 34.7562 26.8278 32.8261 27.466C30.7476 28.1534 27.9682 28.5318 25 28.5318C22.0318 28.5318 19.2525 28.1534 17.174 27.466C15.2439 26.8278 14.3799 26.0482 14.3799 25.5588C14.3799 25.2234 14.7638 24.8043 15.4333 24.4089C16.0883 24.022 16.9815 23.6756 18.0501 23.3915C18.0493 23.4502 18.0488 23.5089 18.0488 23.5675V25.855C18.0488 26.2995 18.4092 26.6599 18.8537 26.6599C19.2981 26.6599 19.6585 26.2995 19.6585 25.855ZM30.3416 29.7163V31.0952H19.6585V29.7163C21.2965 29.9942 23.1162 30.1415 25 30.1415C26.8838 30.1415 28.7034 29.9942 30.3416 29.7163ZM23.4704 32.7048H26.5296C26.4139 34.7555 25.86 36.6317 24.9999 37.9134C24.1401 36.6317 23.5862 34.7555 23.4704 32.7048Z" fill="#121A1F"/>
<path d="M66.296 35V14.392H70.888V35H66.296ZM78.7 35L72.708 26.208H77.748L84.02 35H78.7ZM69.656 28.448V24.836H74.696C75.368 24.836 75.9467 24.7053 76.432 24.444C76.936 24.164 77.3187 23.7813 77.58 23.296C77.86 22.792 78 22.2133 78 21.56C78 20.9067 77.86 20.3373 77.58 19.852C77.3187 19.348 76.936 18.9653 76.432 18.704C75.9467 18.424 75.368 18.284 74.696 18.284H69.656V14.392H74.332C76.0307 14.392 77.5053 14.6533 78.756 15.176C80.0067 15.68 80.968 16.436 81.64 17.444C82.312 18.452 82.648 19.7213 82.648 21.252V21.7C82.648 23.212 82.3027 24.472 81.612 25.48C80.94 26.4693 79.9787 27.216 78.728 27.72C77.496 28.2053 76.0307 28.448 74.332 28.448H69.656ZM95.7651 35V30.464H95.0091V25.536C95.0091 24.752 94.8225 24.164 94.4491 23.772C94.0758 23.38 93.4785 23.184 92.6571 23.184C92.2465 23.184 91.7051 23.1933 91.0331 23.212C90.3611 23.2307 89.6705 23.2587 88.9611 23.296C88.2518 23.3333 87.6078 23.3707 87.0291 23.408V19.628C87.4585 19.5907 87.9625 19.5533 88.5411 19.516C89.1198 19.4787 89.7171 19.4507 90.3331 19.432C90.9491 19.4133 91.5278 19.404 92.0691 19.404C93.6371 19.404 94.9531 19.628 96.0171 20.076C97.0998 20.524 97.9211 21.2053 98.4811 22.12C99.0411 23.016 99.3211 24.1733 99.3211 25.592V35H95.7651ZM90.8651 35.392C89.7638 35.392 88.7931 35.196 87.9531 34.804C87.1318 34.412 86.4878 33.852 86.0211 33.124C85.5545 32.3773 85.3211 31.4907 85.3211 30.464C85.3211 29.344 85.6105 28.4293 86.1891 27.72C86.7678 26.992 87.5798 26.46 88.6251 26.124C89.6705 25.7693 90.8745 25.592 92.2371 25.592H95.5131V28.084H92.2091C91.4251 28.084 90.8185 28.28 90.3891 28.672C89.9785 29.0453 89.7731 29.5587 89.7731 30.212C89.7731 30.828 89.9785 31.332 90.3891 31.724C90.8185 32.0973 91.4251 32.284 92.2091 32.284C92.7131 32.284 93.1611 32.2 93.5531 32.032C93.9638 31.8453 94.2998 31.5373 94.5611 31.108C94.8225 30.6787 94.9718 30.0813 95.0091 29.316L96.0731 30.436C95.9798 31.5 95.7185 32.396 95.2891 33.124C94.8785 33.852 94.2998 34.412 93.5531 34.804C92.8251 35.196 91.9291 35.392 90.8651 35.392ZM103.122 35V19.656H106.678V26.236H106.426C106.426 24.668 106.622 23.3613 107.014 22.316C107.425 21.2707 108.041 20.4867 108.862 19.964C109.683 19.4413 110.682 19.18 111.858 19.18H112.054C113.846 19.18 115.209 19.768 116.142 20.944C117.094 22.1013 117.57 23.8653 117.57 26.236V35H113.09V25.984C113.09 25.1627 112.847 24.4907 112.362 23.968C111.877 23.4453 111.223 23.184 110.402 23.184C109.562 23.184 108.881 23.4547 108.358 23.996C107.854 24.5187 107.602 25.2093 107.602 26.068V35H103.122ZM132.196 35L127.352 27.832H125.196L131.44 19.656H136.144L130.264 27.272L130.32 25.088L137.236 35H132.196ZM121.388 35V14.56H125.868V35H121.388ZM138.571 35V29.988H143.499V35H138.571Z" fill="white"/>
<path d="M147.655 35V19.656H152.135V35H147.655ZM145.611 22.96V19.656H152.135V22.96H145.611ZM149.391 18.144C148.551 18.144 147.925 17.9293 147.515 17.5C147.123 17.052 146.927 16.492 146.927 15.82C146.927 15.1293 147.123 14.5693 147.515 14.14C147.925 13.692 148.551 13.468 149.391 13.468C150.231 13.468 150.847 13.692 151.239 14.14C151.649 14.5693 151.855 15.1293 151.855 15.82C151.855 16.492 151.649 17.052 151.239 17.5C150.847 17.9293 150.231 18.144 149.391 18.144ZM163.754 35.532C162.41 35.532 161.216 35.3267 160.17 34.916C159.125 34.4867 158.238 33.908 157.51 33.18C156.801 32.452 156.26 31.6213 155.886 30.688C155.513 29.736 155.326 28.7373 155.326 27.692V27.048C155.326 25.984 155.513 24.976 155.886 24.024C156.278 23.0533 156.838 22.204 157.566 21.476C158.313 20.748 159.209 20.1787 160.254 19.768C161.3 19.3387 162.466 19.124 163.754 19.124C165.08 19.124 166.256 19.3387 167.282 19.768C168.328 20.1787 169.214 20.748 169.942 21.476C170.67 22.204 171.23 23.0533 171.622 24.024C172.014 24.976 172.21 25.984 172.21 27.048V27.692C172.21 28.7373 172.024 29.736 171.65 30.688C171.277 31.6213 170.726 32.452 169.998 33.18C169.289 33.908 168.412 34.4867 167.366 34.916C166.321 35.3267 165.117 35.532 163.754 35.532ZM163.754 31.752C164.632 31.752 165.36 31.5653 165.938 31.192C166.517 30.8187 166.956 30.296 167.254 29.624C167.572 28.952 167.73 28.2053 167.73 27.384C167.73 26.5067 167.572 25.7413 167.254 25.088C166.937 24.416 166.48 23.884 165.882 23.492C165.304 23.1 164.594 22.904 163.754 22.904C162.933 22.904 162.224 23.1 161.626 23.492C161.029 23.884 160.572 24.416 160.254 25.088C159.956 25.7413 159.806 26.5067 159.806 27.384C159.806 28.2053 159.956 28.952 160.254 29.624C160.553 30.296 161.001 30.8187 161.598 31.192C162.196 31.5653 162.914 31.752 163.754 31.752Z" fill="url(#paint1_linear_322_1098)"/>
<defs>
<linearGradient id="paint0_linear_322_1098" x1="0" y1="25" x2="50" y2="25" gradientUnits="userSpaceOnUse">
<stop stop-color="#3D7EAA"/>
<stop offset="1" stop-color="#FFE47A"/>
</linearGradient>
<linearGradient id="paint1_linear_322_1098" x1="64" y1="25" x2="174" y2="25" gradientUnits="userSpaceOnUse">
<stop offset="0.746588" stop-color="#3D7EAA"/>
<stop offset="0.973239" stop-color="#FFE47A"/>
</linearGradient>
</defs>
</svg>
